<svg xmlns="http://www.w3.org/2000/svg" version="1.1" xmlns:xlink="http://www.w3.org/1999/xlink" xmlns:svgjs="http://svgjs.dev/svgjs" width="2000" height="1500" viewBox="0 0 2000 1500"><rect width="2000" height="1500" fill="#000000"></rect><g transform="matrix(0.44603033006244425,0,0,0.44603033006244425,552.580232658313,250)"><svg viewBox="0 0 321 360" data-background-color="#4a5d5e" preserveAspectRatio="xMidYMid meet" height="2242" width="2000" xmlns="http://www.w3.org/2000/svg" xmlns:xlink="http://www.w3.org/1999/xlink"><g id="tight-bounds" transform="matrix(1,0,0,1,0.5000234999999975,0)"><svg viewBox="0 0 320 360" height="360" width="320"><g><svg></svg></g><g><svg viewBox="0 0 320 360" height="360" width="320"><g><path transform="translate(-74.99272,-51.79039) scale(4.65793,4.65793)" d="M20.6 59.9l0.8 1-0.4-1.3c-0.1-0.6-0.8 0.1-0.4 0.3M21.5 59.3c0.3 0.5 0.6 1 0.6 1.5 0 0.7 0.6 1 1.1 1.2-0.7-0.8-1.1-3-1.7-2.7M59.9 16.9c1.7 0 3.3-0.2 5.1 0.2 4.4 1.1 8.1 3.3 10.6 6.4l7 11.2c0.3 2.8 0.9 5.9 0.8 9.3 0.7 0 0.6-1 1.4-1.2-0.8 2-1.2 4.5-1.4 7.4-0.5-1.6 0-4 0.1-5.3-0.7 1.1-1.1 0.3-1.1-0.2 0.1-0.8-0.3-0.7-0.6-1-1.1-1-1.8-2.1-2.6-3.8 0.5-1.3 0.6-3.2-1-4.2-0.5-0.3-1.1-0.8-1.4-1.6-0.4-1.1-1.1-2.4-0.9-4.1 0.1-0.5-1.5 1.1-2.4 0.4-3.9-2.7-7.8-5.8-12.5-8.4-2.5 0-4.3-0.9-5.2-2-0.8-1-0.2-2.3 1-2.4 0.7 0 1.5-0.2 2.1 0.2 0.1-0.4 0.5-0.9 1-0.9M50 14.6l0.2 0.1c1 0.2 1.5 1.6 2.6 1.1 0 0.7 0.1 1.4-0.1 1.9-0.3 0.8-1.2 0.8-1.9 0.8-6.7-0.4-10.6 2.4-14.7 4.8-1.1 0.7-2.3 1.2-3.2 2.1-4.3 4-9 7.7-10.1 15.1l-0.9 8.2c-0.1 0.9-1.1 1.8-0.9 2.9l0.7 4.9c-0.7-0.7-1.1 0.2-0.9 0.6 0.1 0.3 0.5 1.3 1.1 0.4 0.8 1.5 1.6 4.4 2.7 5.7 3.4 4 7.8 7.6 11.4 11.2 0.9-0.2 1.6-0.2 1.8-0.8 0.3 0.6-0.3 1.2-0.8 1.3 1.6 1 3.4 1.9 5.8 2.1 3.1 0.2 6 0.7 8.7 1.4 1.4-0.4 2.8-0.6 4.3-0.7 0.5 0 0.8-0.8 1.4-1l0.1-1c0.6 0.9 0.5-0.3 0.1-0.9 0.7 0.6 0.9 1.1 1.2 1.5 0-0.3 0.8-1.4 0.8-0.1l0.2-1.3c0.3-0.2 0.4 1.1 0.7 0.2 0.3-0.9 0.9-0.2 1.5-0.5-0.2 0.4-0.1 1.2 0.6 0.7l0.8-0.7c0.5 1.2 1.3 0.7 1.7 0.5 4.4-2.8 8.8-6.1 13-9.4l-0.1 1.3 0.5-1.6c0.5 0.5 0.9 0.1 1.1-0.2 0.6-1 1.4-2 2.7-2.9-1.6 4.3-3.5 7.7-5.9 10.5l-1 1.2c0 0.7-0.2 1.6-1 1.7-0.4 0.1-1.2-0.2-1.8 0.4-0.3 0.4 0.7 1.2-0.1 0.6-0.7-0.5-1.4 0-2.2 0.2-0.6 0.2 0.4 0.8 0.6 1.2 0.2 0.4 0.4 0.8 0.3 1.3l-1.1-1.2c-1.3 0.7-2.1 2-3.2 3-0.5 0.4-0.3 1.1-0.3 1.7-0.7 0-1.5-0.2-1.9 0.2-0.3 0.4-0.2 1-0.2 1.6-1-0.1-1.1-1.6-2-1.3-0.9 0.2-1.9 0.3-2.7 0.8 0.6 1.2-1 0.5-0.8 0.7-1.5-0.9-2.8-1.6-4.4-1-3.4-1.1-7.6-0.6-10.7-0.2 0-0.5 0.1-1-0.1-1.1-0.2 0.5-0.8 0.3-0.7 0.3-1.9-1.3-3.8-2.1-5.8-3.2-1.8 0.2-3.5-0.7-4-1.2-1.4-1.3-3-0.6-4.3-0.9-2.8-0.7-3.8-3.6-4.1-5.6-0.2-1-1-1.4-1.3-1.3-1.3-4.2-3.3-8-4.9-11.9-0.4-1-0.3-2-0.3-3.1 0.5 0.2 1 0.1 0.9-0.6-0.5-3.3-1.7-5.8-3-8.2 0.7-3.4 0.8-7.4 2.4-10.4 1.4-2.7 4-4.1 5.8-6.4 0.6-0.8 0.6-1.9 1.2-2.6 2-2 4-4.1 6.2-5.9 1-0.8 2.2 0 3.7-0.3 0.5-1.8 2.5-3.4 4.4-2.9 0.8 0.2 2.4-1.9 2.9-2.1 0.8-0.3 0.4 0.8 0.4 1.5 1.9-1.5 4.5-2.3 6.9-3.2" fill="#ffffff" fill-rule="nonzero" stroke="none" stroke-width="1" stroke-linecap="butt" stroke-linejoin="miter" stroke-miterlimit="10" stroke-dasharray="" stroke-dashoffset="0" font-family="none" font-weight="none" font-size="none" text-anchor="none" style="mix-blend-mode: normal" data-fill-palette-color="tertiary"></path></g><g transform="matrix(1,0,0,1,64,115.28514559999999)"><svg viewBox="0 0 192 129.42970880000001" height="129.42970880000001" width="192"><g><svg viewBox="0 0 192 129.42970880000001" height="129.42970880000001" width="192"><g><svg viewBox="0 0 192 129.42970880000001" height="129.42970880000001" width="192"><g transform="matrix(1,0,0,1,0,78.22970880000001)"><svg viewBox="0 0 192 51.2" height="51.2" width="192"><g id="textblocktransform"><svg viewBox="0 0 192 51.2" height="51.2" width="192" id="textblock"><g><svg viewBox="0 0 192 51.2" height="51.2" width="192"><g transform="matrix(1,0,0,1,0,0)"><svg width="192" viewBox="4 -37 140.99 37.6" height="51.2" data-palette-color="#d2dbc8"><path d="M25.05-2.5L21.95 0.5 8.5-13.35 8.5 0 4 0 4-37 8.5-37 8.5-15.85 20.25-26.5 22.85-23.65 12.8-14.75 25.05-2.5ZM34.05 0L29.55 0 29.55-26 33.9-26 33.9-20.35Q34.55-22 35.65-23.43 36.75-24.85 38.4-25.73 40.05-26.6 42.25-26.6L42.25-26.6Q43-26.6 43.75-26.53 44.5-26.45 45-26.3L45-26.3 43.65-21.65Q42.7-22.05 41.4-22.05L41.4-22.05Q39.55-22.05 37.87-21 36.2-19.95 35.12-17.75 34.05-15.55 34.05-12.15L34.05-12.15 34.05 0ZM57.95 0.6L57.95 0.6Q54.7 0.6 52.05-1.05 49.4-2.7 47.82-5.73 46.25-8.75 46.25-12.85L46.25-12.85Q46.25-16.75 47.82-19.85 49.4-22.95 52.17-24.78 54.95-26.6 58.55-26.6L58.55-26.6Q60.8-26.6 62.62-25.83 64.45-25.05 65.8-23.9L65.8-23.9 65.8-26 69.9-26 69.9-6.3Q69.9-4.4 70.82-3.83 71.75-3.25 72.84-3.25L72.84-3.25 71.9 0.25Q67.09 0.25 66.09-3.65L66.09-3.65Q64.95-2.05 62.97-0.73 61 0.6 57.95 0.6ZM58.95-3.4L58.95-3.4Q60.85-3.4 62.55-4.33 64.25-5.25 65.4-6.65L65.4-6.65 65.4-20.6Q64.05-21.55 62.42-22.13 60.8-22.7 59-22.7L59-22.7Q56.6-22.7 54.77-21.48 52.95-20.25 51.9-18.07 50.85-15.9 50.85-13L50.85-13Q50.85-10.2 51.9-8.03 52.95-5.85 54.8-4.63 56.65-3.4 58.95-3.4ZM87.94 0.6L87.94 0.6Q84.19 0.6 82.02-1.88 79.84-4.35 79.84-8.95L79.84-8.95 79.84-21.15 75.34-21.15 75.34-25.05 79.94-25.05 80.89-33.25 84.34-33.25 84.34-25.05 91.54-25.05 91.54-21.15 84.34-21.15 84.34-8.6Q84.34-5.7 85.57-4.55 86.79-3.4 88.49-3.4L88.49-3.4Q89.74-3.4 90.87-3.8 91.99-4.2 92.94-4.75L92.94-4.75 94.19-1.15Q93.19-0.55 91.49 0.03 89.79 0.6 87.94 0.6ZM108.64 0.6L108.64 0.6Q104.94 0.6 101.99-1.13 99.04-2.85 97.36-5.93 95.69-9 95.69-13L95.69-13Q95.69-17.2 97.39-20.25 99.09-23.3 102.04-24.95 104.99-26.6 108.64-26.6L108.64-26.6Q112.29-26.6 115.22-24.95 118.14-23.3 119.86-20.28 121.59-17.25 121.59-13.1L121.59-13.1Q121.59-8.95 119.89-5.88 118.19-2.8 115.27-1.1 112.34 0.6 108.64 0.6ZM108.64-3.4L108.64-3.4Q112.59-3.4 114.79-6.08 116.99-8.75 116.99-13L116.99-13Q116.99-15.6 115.89-17.78 114.79-19.95 112.91-21.28 111.04-22.6 108.64-22.6L108.64-22.6Q104.69-22.6 102.49-20 100.29-17.4 100.29-13.1L100.29-13.1Q100.29-10.5 101.39-8.28 102.49-6.05 104.36-4.73 106.24-3.4 108.64-3.4ZM134.59 0.6L134.59 0.6Q131.64 0.6 129.26-0.15 126.89-0.9 125.34-2.1L125.34-2.1 127.24-5.85Q128.54-4.75 130.51-4.03 132.49-3.3 134.74-3.3L134.74-3.3Q137.54-3.3 138.96-4.23 140.39-5.15 140.39-6.6L140.39-6.6Q140.39-7.65 139.86-8.45 139.34-9.25 137.94-10.03 136.54-10.8 133.89-11.7L133.89-11.7Q130.24-12.95 128.41-14.68 126.59-16.4 126.59-19.45L126.59-19.45Q126.59-22.45 129.21-24.53 131.84-26.6 136.49-26.6L136.49-26.6Q138.99-26.6 140.94-26.08 142.89-25.55 144.44-24.75L144.44-24.75 143.19-21.05Q141.84-21.85 140.11-22.35 138.39-22.85 136.29-22.85L136.29-22.85Q133.69-22.85 132.34-21.8 130.99-20.75 130.99-19.5L130.99-19.5Q130.99-18.3 132.04-17.45 133.09-16.6 136.14-15.6L136.14-15.6Q141.09-13.95 143.04-11.95 144.99-9.95 144.99-6.95L144.99-6.95Q144.99-3.45 142.16-1.43 139.34 0.6 134.59 0.6Z" opacity="1" transform="matrix(1,0,0,1,0,0)" fill="#ffffff" class="wordmark-text-0" data-fill-palette-color="primary" id="text-0"></path></svg></g></svg></g></svg></g></svg></g><g transform="matrix(1,0,0,1,51.98333847234409,0)"><svg viewBox="0 0 88.03332305531183 70.75840000000001" height="70.75840000000001" width="88.03332305531183"><g><svg xmlns="http://www.w3.org/2000/svg" xmlns:xlink="http://www.w3.org/1999/xlink" version="1.1" x="0" y="0" viewBox="3.627888888888889 10.273980751668047 67.74124433151111 54.44826909345639" enable-background="new 0 0 75 75" xml:space="preserve" height="70.75840000000001" width="88.03332305531183" class="icon-icon-0" data-fill-palette-color="accent" id="icon-0"><path d="M71.283 20.903C71.173 20.858 71.037 20.864 70.845 21.101 70.669 21.319 69.46 22.872 69.385 22.936 69.309 22.998 69.226 22.939 69.279 22.819 69.331 22.698 70.587 20.026 70.724 19.655 70.858 19.294 70.721 19.175 70.622 19.135 70.499 19.087 70.251 19.144 70.13 19.455 70.013 19.756 68.733 22.492 68.638 22.575S68.383 22.568 68.478 22.112C68.573 21.657 69.327 19.143 69.392 18.89 69.463 18.615 69.348 18.323 69.131 18.294S68.766 18.373 68.668 18.769C68.591 19.075 68.277 20.063 67.95 21.452 67.622 22.842 67.418 22.478 67.401 22.146S67.735 19.796 67.782 19.578C67.831 19.36 67.923 18.846 67.628 18.841 67.334 18.836 67.28 19.329 67.131 19.865 66.981 20.402 66.574 22.874 66.406 23.039S66.225 22.95 66.13 22.622C66.036 22.293 66.105 21.701 66.072 21.448 66.04 21.194 66.102 20.878 65.785 20.815S65.439 21.342 65.439 21.342L65.408 23.481 65.437 24.241C65.459 24.851 65.51 25.788 65.51 25.788 65.515 26.214 65.575 26.555 65.484 26.739 65.288 27.132 64.698 27.657 63.517 29.556 62.337 31.457 62.206 30.802 62.206 30.802 61.943 28.18 60.502 27.656 60.502 27.131S60.437 25.165 60.437 25.165 60.801 25.132 61.059 24.935C61.318 24.739 62.403 23.46 62.403 23.46L62.895 23.751S63.259 23.952 63.296 23.645C63.334 23.33 63.435 22.79 63.681 22.379 64.075 21.724 64.841 21.051 65.746 19.757 66.163 19.161 65.942 17.037 63.714 15.07 61.485 13.104 59.912 14.152 58.601 15.07S56.193 18.495 56.193 18.495C54.882 17.708 51.981 13.562 49.622 11.597 47.263 9.63 46.039 10.323 44.935 10.744 43.624 11.245 40.904 12.022 38.642 12.644 37.209 13.04 36.512 12.972 35.529 12.972S32.244 13.071 31.391 13.136 30.635 13.612 31.194 13.635C32.327 13.68 34.071 13.504 34.071 13.504S32.319 14.006 30.703 14.562C29.917 14.833 29.99 15.52 31.021 15.107 31.942 14.738 34.071 13.997 34.267 14.193S31.654 15.988 30.605 16.774 30.285 17.823 30.613 17.692 34.349 14.939 34.808 15.201C35.267 15.464 32.366 17.61 31.71 18.396 31.055 19.183 31.202 19.724 32.12 18.937 33.037 18.151 37.88 13.947 35.25 18.151 34.379 19.543 35.135 19.921 35.594 19.134S37.757 16.512 38.151 15.857C38.544 15.202 39.855 14.48 40.904 14.415 41.952 14.35 47.229 14.152 47.229 14.152 47.294 15.005 47.983 16.447 48.769 17.627 49.556 18.807 48.507 19.921 46.803 20.576 45.098 21.231 42.215 23.853 41.1 24.575 39.986 25.296 37.459 27.598 36.119 27.918 34.71 28.253 32.937 27.749 30.679 30.081 28.648 32.179 30.285 33.62 29.04 34.603S25.107 37.749 24.189 38.732 21.764 41.55 20.584 42.599 15.719 44.792 14.67 45.316C13.621 45.841 12.718 47.318 12.325 47.974S11.21 49.22 9.768 50.792C8.326 52.366 7.212 52.759 6.425 52.692 5.638 52.628 4.196 52.497 3.803 53.872 3.409 55.249 3.803 58.198 3.803 59.839 3.803 61.478 4.196 62.788 4.458 63.771S5.703 64.917 7.342 64.525C8.981 64.13 7.604 63.379 7.211 62.525 6.817 61.673 7.211 61.019 7.211 60.101S7.211 58.068 7.998 57.216 9.964 54.987 11.603 53.808 12.52 53.152 15.602 51.579C18.683 50.005 18.456 48.835 20.649 47.776 20.908 47.651 21.038 47.811 21.411 47.645 21.842 47.454 22.522 46.934 22.875 46.825 25.524 46.009 27.975 44.427 29.17 43.647 30.678 42.665 34.086 39.977 34.086 39.977S34.873 38.928 35.528 39.452C36.183 39.977 36.905 40.239 38.412 41.811 39.92 43.385 42.935 45.024 42.935 45.024 39.428 45.286 39.592 46.663 38.805 47.055 38.019 47.45 36.315 47.58 34.938 48.104 33.562 48.629 30.875 48.956 30.285 48.956 29.694 48.956 27.663 48.235 27.794 50.595 27.925 52.956 28.58 51.907 29.694 54.07 31.244 57.078 31.53 57.873 32.644 58.922 33.758 59.969 34.435 59.063 34.435 59.063S34.677 58.723 34.513 58.401C34.12 57.626 33.392 56.057 33.299 55.317 33.168 54.268 33.562 52.629 33.693 51.973 33.824 51.319 35.79 51.055 36.511 50.86 37.232 50.663 41.689 50.663 43.46 50.465 45.232 50.27 48.965 49.154 50.341 48.565 51.718 47.975 51.107 47.004 50.882 45.608 50.637 44.083 47.965 40.721 47.622 39.848 47.031 38.34 46.28 37.098 44.934 35.75 42.705 33.522 42.383 33.497 43.066 33.096 44.075 32.504 46.54 31.982 47.72 31.72 48.9 31.457 51.98 30.147 53.226 29.82 54.471 29.492 56.83 27.787 56.83 27.787S57.42 29.623 57.879 30.475 59.911 33.293 60.239 34.539 61.615 35.981 62.336 35.784 65.155 32.376 65.876 31.262 67.187 27.722 67.449 27.264C67.606 26.988 67.845 26.826 68.075 26.55 68.077 26.549 68.079 26.549 68.08 26.547 68.552 26.177 69.337 24.342 69.403 24.112 69.468 23.883 69.634 23.504 69.816 23.301 70.097 22.989 71.092 21.588 71.208 21.443 71.353 21.266 71.446 20.972 71.283 20.903" fill="#ffffff" data-fill-palette-color="accent"></path></svg></g></svg></g><g></g></svg></g></svg></g></svg></g></svg></g><defs></defs></svg><rect width="320" height="360" fill="none" stroke="none" visibility="hidden"></rect></g></svg></g></svg>